<svg fill="none" stroke-width="1.5" viewBox="0 0 24 24" xmlns="http://www.w3.org/2000/svg"><path d="M7.4 7H4.6a.6.6 0 00-.6.6v8.8a.6.6 0 00.6.6h2.8a.6.6 0 00.6-.6V7.6a.6.6 0 00-.6-.6zm12 0h-2.8a.6.6 0 00-.6.6v8.8a.6.6 0 00.6.6h2.8a.6.6 0 00.6-.6V7.6a.6.6 0 00-.6-.6z" stroke="#c69749" stroke-linecap="round" stroke-linejoin="round" class="stroke-000000"/><path d="M1 14.4V9.6a.6.6 0 01.6-.6h1.8a.6.6 0 01.6.6v4.8a.6.6 0 01-.6.6H1.6a.6.6 0 01-.6-.6zm22 0V9.6a.6.6 0 00-.6-.6h-1.8a.6.6 0 00-.6.6v4.8a.6.6 0 00.6.6h1.8a.6.6 0 00.6-.6zM8 12h8" stroke="#c69749" stroke-linecap="round" stroke-linejoin="round" class="stroke-000000"/></svg>